<svg id="visual" viewBox="0 0 675 900" width="675" height="900" xmlns="http://www.w3.org/2000/svg" xmlns:xlink="http://www.w3.org/1999/xlink" version="1.1"><g stroke-width="1" stroke-linejoin="bevel"><path d="M288 429L238 393L202 454Z" fill="#00101c" stroke="#21cbd4"></path><path d="M238 393L185 441L202 454Z" fill="#297ea6" stroke="#21cbd4"></path><path d="M185 441L197 485L202 454Z" fill="#277297" stroke="#21cbd4"></path><path d="M202 454L272 533L288 429Z" fill="#1d4e6b" stroke="#21cbd4"></path><path d="M185 441L186 498L197 485Z" fill="#19435d" stroke="#21cbd4"></path><path d="M197 485L272 533L202 454Z" fill="#00101c" stroke="#21cbd4"></path><path d="M186 498L272 533L197 485Z" fill="#15384f" stroke="#21cbd4"></path><path d="M238 393L148 406L185 441Z" fill="#15384f" stroke="#21cbd4"></path><path d="M185 441L113 410L186 498Z" fill="#277297" stroke="#21cbd4"></path><path d="M288 429L301 326L238 393Z" fill="#297ea6" stroke="#21cbd4"></path><path d="M238 393L114 296L148 406Z" fill="#246688" stroke="#21cbd4"></path><path d="M288 429L336 345L301 326Z" fill="#205a7a" stroke="#21cbd4"></path><path d="M397 406L336 345L288 429Z" fill="#19435d" stroke="#21cbd4"></path><path d="M83 397L113 410L114 296Z" fill="#0c2435" stroke="#21cbd4"></path><path d="M148 406L113 410L185 441Z" fill="#112e42" stroke="#21cbd4"></path><path d="M111 569L215 581L186 498Z" fill="#00101c" stroke="#21cbd4"></path><path d="M186 498L215 581L272 533Z" fill="#0c2435" stroke="#21cbd4"></path><path d="M302 615L376 506L272 533Z" fill="#19435d" stroke="#21cbd4"></path><path d="M272 533L376 506L288 429Z" fill="#0c2435" stroke="#21cbd4"></path><path d="M403 466L397 406L288 429Z" fill="#112e42" stroke="#21cbd4"></path><path d="M376 506L403 466L288 429Z" fill="#1d4e6b" stroke="#21cbd4"></path><path d="M114 296L113 410L148 406Z" fill="#081a28" stroke="#21cbd4"></path><path d="M66 496L111 569L186 498Z" fill="#19435d" stroke="#21cbd4"></path><path d="M293 244L229 263L301 326Z" fill="#00101c" stroke="#21cbd4"></path><path d="M301 326L229 263L238 393Z" fill="#205a7a" stroke="#21cbd4"></path><path d="M397 406L382 325L336 345Z" fill="#19435d" stroke="#21cbd4"></path><path d="M336 345L382 325L301 326Z" fill="#0c2435" stroke="#21cbd4"></path><path d="M215 581L302 615L272 533Z" fill="#1d4e6b" stroke="#21cbd4"></path><path d="M66 496L186 498L113 410Z" fill="#00101c" stroke="#21cbd4"></path><path d="M215 581L233 685L302 615Z" fill="#205a7a" stroke="#21cbd4"></path><path d="M83 397L66 496L113 410Z" fill="#112e42" stroke="#21cbd4"></path><path d="M488 471L419 359L397 406Z" fill="#277297" stroke="#21cbd4"></path><path d="M397 406L419 359L382 325Z" fill="#277297" stroke="#21cbd4"></path><path d="M229 263L114 296L238 393Z" fill="#0c2435" stroke="#21cbd4"></path><path d="M66 496L106 579L111 569Z" fill="#081a28" stroke="#21cbd4"></path><path d="M111 569L106 579L215 581Z" fill="#112e42" stroke="#21cbd4"></path><path d="M382 325L293 244L301 326Z" fill="#19435d" stroke="#21cbd4"></path><path d="M229 263L140 221L114 296Z" fill="#246688" stroke="#21cbd4"></path><path d="M114 296L52 325L83 397Z" fill="#297ea6" stroke="#21cbd4"></path><path d="M83 397L0 402L66 496Z" fill="#246688" stroke="#21cbd4"></path><path d="M293 244L200 215L229 263Z" fill="#1d4e6b" stroke="#21cbd4"></path><path d="M114 296L0 267L52 325Z" fill="#0c2435" stroke="#21cbd4"></path><path d="M302 615L387 622L376 506Z" fill="#1d4e6b" stroke="#21cbd4"></path><path d="M485 492L488 471L403 466Z" fill="#277297" stroke="#21cbd4"></path><path d="M403 466L488 471L397 406Z" fill="#205a7a" stroke="#21cbd4"></path><path d="M200 215L140 221L229 263Z" fill="#112e42" stroke="#21cbd4"></path><path d="M485 492L403 466L376 506Z" fill="#081a28" stroke="#21cbd4"></path><path d="M52 325L0 402L83 397Z" fill="#246688" stroke="#21cbd4"></path><path d="M66 496L0 578L106 579Z" fill="#0c2435" stroke="#21cbd4"></path><path d="M475 578L485 492L376 506Z" fill="#205a7a" stroke="#21cbd4"></path><path d="M143 686L233 685L215 581Z" fill="#297ea6" stroke="#21cbd4"></path><path d="M302 615L291 692L387 622Z" fill="#19435d" stroke="#21cbd4"></path><path d="M0 402L0 487L66 496Z" fill="#19435d" stroke="#21cbd4"></path><path d="M0 487L0 500L66 496Z" fill="#081a28" stroke="#21cbd4"></path><path d="M106 579L112 657L215 581Z" fill="#205a7a" stroke="#21cbd4"></path><path d="M419 359L432 269L382 325Z" fill="#246688" stroke="#21cbd4"></path><path d="M382 325L413 233L293 244Z" fill="#081a28" stroke="#21cbd4"></path><path d="M293 244L232 163L200 215Z" fill="#1d4e6b" stroke="#21cbd4"></path><path d="M530 320L432 269L419 359Z" fill="#112e42" stroke="#21cbd4"></path><path d="M0 648L112 657L106 579Z" fill="#081a28" stroke="#21cbd4"></path><path d="M233 685L291 692L302 615Z" fill="#112e42" stroke="#21cbd4"></path><path d="M432 269L413 233L382 325Z" fill="#277297" stroke="#21cbd4"></path><path d="M112 657L143 686L215 581Z" fill="#246688" stroke="#21cbd4"></path><path d="M233 685L266 736L291 692Z" fill="#277297" stroke="#21cbd4"></path><path d="M434 645L475 578L387 622Z" fill="#205a7a" stroke="#21cbd4"></path><path d="M387 622L475 578L376 506Z" fill="#1d4e6b" stroke="#21cbd4"></path><path d="M485 492L521 476L488 471Z" fill="#081a28" stroke="#21cbd4"></path><path d="M342 182L307 174L293 244Z" fill="#19435d" stroke="#21cbd4"></path><path d="M200 215L120 115L140 221Z" fill="#00101c" stroke="#21cbd4"></path><path d="M413 233L342 182L293 244Z" fill="#15384f" stroke="#21cbd4"></path><path d="M307 174L232 163L293 244Z" fill="#297ea6" stroke="#21cbd4"></path><path d="M533 493L521 476L485 492Z" fill="#1d4e6b" stroke="#21cbd4"></path><path d="M545 350L530 320L419 359Z" fill="#19435d" stroke="#21cbd4"></path><path d="M391 694L434 645L387 622Z" fill="#19435d" stroke="#21cbd4"></path><path d="M0 500L0 578L66 496Z" fill="#246688" stroke="#21cbd4"></path><path d="M112 657L131 722L143 686Z" fill="#205a7a" stroke="#21cbd4"></path><path d="M485 197L421 205L413 233Z" fill="#297ea6" stroke="#21cbd4"></path><path d="M413 233L421 205L342 182Z" fill="#277297" stroke="#21cbd4"></path><path d="M485 197L413 233L432 269Z" fill="#19435d" stroke="#21cbd4"></path><path d="M475 578L533 493L485 492Z" fill="#246688" stroke="#21cbd4"></path><path d="M545 350L419 359L488 471Z" fill="#246688" stroke="#21cbd4"></path><path d="M573 577L533 493L475 578Z" fill="#0c2435" stroke="#21cbd4"></path><path d="M291 692L391 694L387 622Z" fill="#00101c" stroke="#21cbd4"></path><path d="M57 191L0 267L114 296Z" fill="#15384f" stroke="#21cbd4"></path><path d="M52 325L0 267L0 402Z" fill="#112e42" stroke="#21cbd4"></path><path d="M57 191L114 296L140 221Z" fill="#1d4e6b" stroke="#21cbd4"></path><path d="M208 742L266 736L233 685Z" fill="#15384f" stroke="#21cbd4"></path><path d="M291 692L338 744L391 694Z" fill="#297ea6" stroke="#21cbd4"></path><path d="M62 766L131 722L112 657Z" fill="#205a7a" stroke="#21cbd4"></path><path d="M143 686L208 742L233 685Z" fill="#0c2435" stroke="#21cbd4"></path><path d="M131 722L208 742L143 686Z" fill="#15384f" stroke="#21cbd4"></path><path d="M545 350L488 471L521 476Z" fill="#246688" stroke="#21cbd4"></path><path d="M120 115L57 191L140 221Z" fill="#205a7a" stroke="#21cbd4"></path><path d="M578 350L545 350L521 476Z" fill="#112e42" stroke="#21cbd4"></path><path d="M57 191L0 235L0 267Z" fill="#00101c" stroke="#21cbd4"></path><path d="M297 815L338 744L266 736Z" fill="#15384f" stroke="#21cbd4"></path><path d="M266 736L338 744L291 692Z" fill="#246688" stroke="#21cbd4"></path><path d="M0 578L0 648L106 579Z" fill="#246688" stroke="#21cbd4"></path><path d="M504 706L434 645L391 694Z" fill="#1d4e6b" stroke="#21cbd4"></path><path d="M504 706L529 619L434 645Z" fill="#277297" stroke="#21cbd4"></path><path d="M434 645L529 619L475 578Z" fill="#081a28" stroke="#21cbd4"></path><path d="M533 493L585 488L521 476Z" fill="#00101c" stroke="#21cbd4"></path><path d="M530 320L485 197L432 269Z" fill="#15384f" stroke="#21cbd4"></path><path d="M396 75L301 71L342 182Z" fill="#205a7a" stroke="#21cbd4"></path><path d="M301 71L232 163L307 174Z" fill="#081a28" stroke="#21cbd4"></path><path d="M183 82L120 115L232 163Z" fill="#112e42" stroke="#21cbd4"></path><path d="M566 193L485 197L530 320Z" fill="#205a7a" stroke="#21cbd4"></path><path d="M573 577L585 488L533 493Z" fill="#277297" stroke="#21cbd4"></path><path d="M585 488L578 350L521 476Z" fill="#0c2435" stroke="#21cbd4"></path><path d="M545 350L574 305L530 320Z" fill="#15384f" stroke="#21cbd4"></path><path d="M183 82L232 163L227 41Z" fill="#00101c" stroke="#21cbd4"></path><path d="M232 163L120 115L200 215Z" fill="#00101c" stroke="#21cbd4"></path><path d="M57 191L0 122L0 235Z" fill="#1d4e6b" stroke="#21cbd4"></path><path d="M578 350L574 305L545 350Z" fill="#112e42" stroke="#21cbd4"></path><path d="M529 619L573 577L475 578Z" fill="#0c2435" stroke="#21cbd4"></path><path d="M301 71L307 174L342 182Z" fill="#246688" stroke="#21cbd4"></path><path d="M208 742L251 805L266 736Z" fill="#112e42" stroke="#21cbd4"></path><path d="M439 775L504 706L391 694Z" fill="#205a7a" stroke="#21cbd4"></path><path d="M126 791L251 805L208 742Z" fill="#277297" stroke="#21cbd4"></path><path d="M126 791L208 742L131 722Z" fill="#112e42" stroke="#21cbd4"></path><path d="M445 110L342 182L421 205Z" fill="#112e42" stroke="#21cbd4"></path><path d="M62 766L126 791L131 722Z" fill="#205a7a" stroke="#21cbd4"></path><path d="M573 577L614 481L585 488Z" fill="#205a7a" stroke="#21cbd4"></path><path d="M585 488L614 481L578 350Z" fill="#277297" stroke="#21cbd4"></path><path d="M578 350L675 315L574 305Z" fill="#205a7a" stroke="#21cbd4"></path><path d="M439 775L391 694L338 744Z" fill="#205a7a" stroke="#21cbd4"></path><path d="M529 619L596 704L573 577Z" fill="#112e42" stroke="#21cbd4"></path><path d="M55 56L58 113L120 115Z" fill="#112e42" stroke="#21cbd4"></path><path d="M120 115L58 113L57 191Z" fill="#297ea6" stroke="#21cbd4"></path><path d="M0 648L62 766L112 657Z" fill="#112e42" stroke="#21cbd4"></path><path d="M566 193L497 156L485 197Z" fill="#277297" stroke="#21cbd4"></path><path d="M485 197L497 156L421 205Z" fill="#00101c" stroke="#21cbd4"></path><path d="M283 900L297 815L251 805Z" fill="#0c2435" stroke="#21cbd4"></path><path d="M251 805L297 815L266 736Z" fill="#15384f" stroke="#21cbd4"></path><path d="M497 156L445 110L421 205Z" fill="#0c2435" stroke="#21cbd4"></path><path d="M398 845L439 775L338 744Z" fill="#15384f" stroke="#21cbd4"></path><path d="M445 110L396 75L342 182Z" fill="#00101c" stroke="#21cbd4"></path><path d="M301 71L227 41L232 163Z" fill="#00101c" stroke="#21cbd4"></path><path d="M92 0L55 56L120 115Z" fill="#00101c" stroke="#21cbd4"></path><path d="M246 0L227 41L301 71Z" fill="#0c2435" stroke="#21cbd4"></path><path d="M0 79L0 122L58 113Z" fill="#15384f" stroke="#21cbd4"></path><path d="M58 113L0 122L57 191Z" fill="#277297" stroke="#21cbd4"></path><path d="M497 156L473 80L445 110Z" fill="#081a28" stroke="#21cbd4"></path><path d="M445 110L473 80L396 75Z" fill="#0c2435" stroke="#21cbd4"></path><path d="M574 305L566 193L530 320Z" fill="#1d4e6b" stroke="#21cbd4"></path><path d="M675 256L566 193L574 305Z" fill="#1d4e6b" stroke="#21cbd4"></path><path d="M439 775L515 747L504 706Z" fill="#297ea6" stroke="#21cbd4"></path><path d="M504 706L596 704L529 619Z" fill="#1d4e6b" stroke="#21cbd4"></path><path d="M675 501L675 467L614 481Z" fill="#081a28" stroke="#21cbd4"></path><path d="M0 648L0 772L62 766Z" fill="#277297" stroke="#21cbd4"></path><path d="M62 766L45 816L126 791Z" fill="#081a28" stroke="#21cbd4"></path><path d="M544 90L473 80L497 156Z" fill="#15384f" stroke="#21cbd4"></path><path d="M319 0L246 0L301 71Z" fill="#0c2435" stroke="#21cbd4"></path><path d="M92 0L120 115L183 82Z" fill="#1d4e6b" stroke="#21cbd4"></path><path d="M0 772L45 816L62 766Z" fill="#1d4e6b" stroke="#21cbd4"></path><path d="M126 791L207 900L251 805Z" fill="#112e42" stroke="#21cbd4"></path><path d="M675 501L614 481L573 577Z" fill="#19435d" stroke="#21cbd4"></path><path d="M614 481L675 399L578 350Z" fill="#246688" stroke="#21cbd4"></path><path d="M675 467L675 399L614 481Z" fill="#19435d" stroke="#21cbd4"></path><path d="M55 56L0 79L58 113Z" fill="#00101c" stroke="#21cbd4"></path><path d="M283 900L398 845L297 815Z" fill="#112e42" stroke="#21cbd4"></path><path d="M297 815L398 845L338 744Z" fill="#15384f" stroke="#21cbd4"></path><path d="M439 775L545 794L515 747Z" fill="#15384f" stroke="#21cbd4"></path><path d="M675 610L675 501L573 577Z" fill="#205a7a" stroke="#21cbd4"></path><path d="M319 0L301 71L396 75Z" fill="#112e42" stroke="#21cbd4"></path><path d="M227 41L172 0L183 82Z" fill="#1d4e6b" stroke="#21cbd4"></path><path d="M613 759L596 704L515 747Z" fill="#277297" stroke="#21cbd4"></path><path d="M515 747L596 704L504 706Z" fill="#00101c" stroke="#21cbd4"></path><path d="M246 0L172 0L227 41Z" fill="#277297" stroke="#21cbd4"></path><path d="M55 56L0 0L0 79Z" fill="#19435d" stroke="#21cbd4"></path><path d="M383 0L319 0L396 75Z" fill="#112e42" stroke="#21cbd4"></path><path d="M675 399L675 315L578 350Z" fill="#19435d" stroke="#21cbd4"></path><path d="M566 193L544 90L497 156Z" fill="#277297" stroke="#21cbd4"></path><path d="M487 0L383 0L396 75Z" fill="#1d4e6b" stroke="#21cbd4"></path><path d="M590 88L544 90L566 193Z" fill="#00101c" stroke="#21cbd4"></path><path d="M473 80L487 0L396 75Z" fill="#1d4e6b" stroke="#21cbd4"></path><path d="M398 845L453 847L439 775Z" fill="#1d4e6b" stroke="#21cbd4"></path><path d="M172 0L92 0L183 82Z" fill="#297ea6" stroke="#21cbd4"></path><path d="M131 900L207 900L126 791Z" fill="#15384f" stroke="#21cbd4"></path><path d="M398 845L428 900L453 847Z" fill="#1d4e6b" stroke="#21cbd4"></path><path d="M207 900L283 900L251 805Z" fill="#205a7a" stroke="#21cbd4"></path><path d="M596 704L675 610L573 577Z" fill="#15384f" stroke="#21cbd4"></path><path d="M453 847L545 794L439 775Z" fill="#00101c" stroke="#21cbd4"></path><path d="M596 704L675 681L675 610Z" fill="#15384f" stroke="#21cbd4"></path><path d="M0 772L0 836L45 816Z" fill="#297ea6" stroke="#21cbd4"></path><path d="M111 900L131 900L126 791Z" fill="#00101c" stroke="#21cbd4"></path><path d="M675 315L675 256L574 305Z" fill="#297ea6" stroke="#21cbd4"></path><path d="M111 900L126 791L45 816Z" fill="#112e42" stroke="#21cbd4"></path><path d="M675 256L632 157L566 193Z" fill="#246688" stroke="#21cbd4"></path><path d="M0 900L111 900L45 816Z" fill="#112e42" stroke="#21cbd4"></path><path d="M602 789L613 759L545 794Z" fill="#205a7a" stroke="#21cbd4"></path><path d="M545 794L613 759L515 747Z" fill="#15384f" stroke="#21cbd4"></path><path d="M632 157L590 88L566 193Z" fill="#297ea6" stroke="#21cbd4"></path><path d="M544 90L487 0L473 80Z" fill="#277297" stroke="#21cbd4"></path><path d="M283 900L413 900L398 845Z" fill="#0c2435" stroke="#21cbd4"></path><path d="M453 847L501 900L545 794Z" fill="#0c2435" stroke="#21cbd4"></path><path d="M613 759L675 681L596 704Z" fill="#297ea6" stroke="#21cbd4"></path><path d="M413 900L428 900L398 845Z" fill="#00101c" stroke="#21cbd4"></path><path d="M547 0L487 0L544 90Z" fill="#277297" stroke="#21cbd4"></path><path d="M92 0L0 0L55 56Z" fill="#081a28" stroke="#21cbd4"></path><path d="M572 900L602 789L545 794Z" fill="#00101c" stroke="#21cbd4"></path><path d="M613 759L675 786L675 681Z" fill="#297ea6" stroke="#21cbd4"></path><path d="M0 836L0 900L45 816Z" fill="#15384f" stroke="#21cbd4"></path><path d="M428 900L501 900L453 847Z" fill="#112e42" stroke="#21cbd4"></path><path d="M581 0L544 90L590 88Z" fill="#081a28" stroke="#21cbd4"></path><path d="M581 0L547 0L544 90Z" fill="#112e42" stroke="#21cbd4"></path><path d="M675 256L675 118L632 157Z" fill="#19435d" stroke="#21cbd4"></path><path d="M632 157L675 118L590 88Z" fill="#081a28" stroke="#21cbd4"></path><path d="M675 38L581 0L590 88Z" fill="#205a7a" stroke="#21cbd4"></path><path d="M675 801L675 786L602 789Z" fill="#00101c" stroke="#21cbd4"></path><path d="M602 789L675 786L613 759Z" fill="#0c2435" stroke="#21cbd4"></path><path d="M675 900L675 801L602 789Z" fill="#19435d" stroke="#21cbd4"></path><path d="M501 900L572 900L545 794Z" fill="#277297" stroke="#21cbd4"></path><path d="M675 118L675 38L590 88Z" fill="#19435d" stroke="#21cbd4"></path><path d="M675 38L675 0L581 0Z" fill="#297ea6" stroke="#21cbd4"></path><path d="M572 900L675 900L602 789Z" fill="#205a7a" stroke="#21cbd4"></path></g></svg>